<?xml version="1.0" standalone="no"?><!DOCTYPE svg PUBLIC "-//W3C//DTD SVG 1.1//EN" "http://www.w3.org/Graphics/SVG/1.1/DTD/svg11.dtd"><svg t="1683258818542" class="icon" viewBox="0 0 1024 1024" version="1.1" xmlns="http://www.w3.org/2000/svg" p-id="2648" width="200" height="200" xmlns:xlink="http://www.w3.org/1999/xlink"><path d="M318.92 416.18c-0.34-0.42-37.48-45.32-54.35 16.54-16.4 60.12 26.22 124.46 62.56 107.12 27.82 110.83 124.01 147.08 178.46 147.08s150.64-36.25 178.46-147.08c36.34 17.34 78.96-47 62.56-107.12-16.87-61.85-54.01-16.96-54.35-16.54 1.37-140.67-3.54-253.66-186.67-253.66-183.14 0-188.04 112.99-186.67 253.66" fill="#EEA963" p-id="2649"></path><path d="M539.02 683.02v40.07c-9.27 3.25-20.86 5.18-33.44 5.18-12.58 0-24.17-1.93-33.44-5.18v-40.07c12.09 2.67 23.47 3.89 33.44 3.89 9.97 0 21.35-1.21 33.44-3.89" fill="#DE8A54" p-id="2650"></path><path d="M692.25 416.18c0.42-43.26 0.23-83.92-5.53-119.47-73.94 29.02-16.32 208.53-5.91 200.89 10.42-7.64 11.44-81.42 11.44-81.42m-373.33 0s1.02 73.78 11.44 81.42c10.41 7.64 68.03-171.87-5.91-200.89-5.77 35.55-5.96 76.21-5.53 119.47z" fill="#C26912" p-id="2651"></path><path d="M695.43 250.88v153.11c-52-13.81-118.01-22.07-189.85-22.07-71.84 0-137.84 8.26-189.84 22.07V250.88c-26.03-15.73-41.31-34.85-41.31-55.48 0-53.71 103.48-97.25 231.15-97.25 127.66 0 231.15 43.54 231.15 97.25 0 20.62-15.27 39.74-41.3 55.48" fill="#FFFFFF" p-id="2652"></path><path d="M371.34 368.72V258.85c0-4.77 3.81-8.65 8.49-8.65s8.5 3.89 8.5 8.65v107.32c-5.76 0.79-11.43 1.65-16.99 2.55m35.92-4.93V258.85c0-4.77 3.82-8.65 8.49-8.65 4.68 0 8.49 3.89 8.49 8.65v103.21c-5.72 0.52-11.39 1.11-16.98 1.73z m35.94-3.24v-101.7c0-4.77 3.82-8.65 8.49-8.65 4.68 0 8.49 3.89 8.49 8.65v100.7c-5.72 0.27-11.37 0.62-16.98 1z m35.93-1.73v-99.98c0-4.77 3.81-8.65 8.49-8.65s8.5 3.89 8.5 8.65v99.64c-5.7 0.08-11.37 0.19-16.99 0.34z m35.93-0.33v-99.64c0-4.77 3.81-8.65 8.49-8.65s8.49 3.89 8.49 8.65v99.98c-5.62-0.16-11.28-0.28-16.98-0.34z m35.93 1.06v-100.7c0-4.77 3.82-8.65 8.49-8.65 4.68 0 8.49 3.89 8.49 8.65v101.7c-5.59-0.38-11.27-0.72-16.98-1z m35.93 2.51V258.85c0-4.77 3.81-8.65 8.49-8.65s8.49 3.89 8.49 8.65V363.8c-5.58-0.63-11.24-1.21-16.98-1.74z m35.93 4.11V258.85c0-4.77 3.81-8.65 8.49-8.65s8.49 3.89 8.49 8.65v109.87c-5.56-0.9-11.22-1.76-16.98-2.55z m35.94 5.93V258.85c0-4.77 3.81-8.65 8.49-8.65s8.5 3.89 8.5 8.65v116.79c-5.54-1.24-11.2-2.42-16.99-3.54z m-314.9-121.9c4.68 0 8.5 3.89 8.5 8.65V372.1c-5.79 1.12-11.45 2.29-16.99 3.54V258.85c0-4.77 3.82-8.65 8.49-8.65z" fill="#E4B6B6" p-id="2653"></path><path d="M401.17 714.79h55.67c9.18 8.01 27.56 13.48 48.74 13.48 21.18 0 39.56-5.47 48.74-13.48H610c13.55 0 24.63 11.08 24.63 24.64v152.51H376.54V739.43c0-13.56 11.08-24.64 24.63-24.64" fill="#FFFFFF" p-id="2654"></path><path d="M376.54 891.93h-64.37c7.98-40.81 13.27-153.68 64.37-153.68h0.02l-0.02 1.18v152.5z m258.09 0H699c-7.98-40.81-13.27-153.68-64.37-153.68h-0.02l0.02 1.18v152.5z" fill="#E4B6B6" p-id="2655"></path><path d="M699 891.93c-1.91-9.79-3.68-23.76-5.95-39.3h-58.42v39.3H699z m-322.46 0h-64.37c1.91-9.79 3.68-23.76 5.95-39.3h58.42v39.3z" fill="#CAA1A1" p-id="2656"></path><path d="M448.39 692.47l57.19 29.63 57.2-29.63v32.85l-38.88 20.14 22.12 24.45-40.44-14.96-57.19-29.63z" fill="#E4B6B6" p-id="2657"></path><path d="M564.71 814.18c5.66 0 10.25 4.59 10.25 10.25s-4.59 10.24-10.25 10.24-10.24-4.59-10.24-10.24c0-5.66 4.58-10.25 10.24-10.25m0 42.21c5.66 0 10.25 4.59 10.25 10.25s-4.59 10.24-10.25 10.24-10.24-4.59-10.24-10.24c0-5.67 4.58-10.25 10.24-10.25z m0-84.42c5.66 0 10.25 4.59 10.25 10.24 0 5.66-4.59 10.24-10.25 10.24s-10.24-4.59-10.24-10.24 4.58-10.24 10.24-10.24z" fill="#CAA1A1" p-id="2658"></path><path d="M523.87 536.16c0 10.1-8.19 11.53-18.28 11.53-10.1 0-18.29-1.44-18.29-11.53 0-10.1 8.19-42.01 18.29-42.01 10.09 0 18.28 31.91 18.28 42.01z" fill="#DE8A54" p-id="2659"></path><path d="M396.47 454.4a9.12 9.12 0 0 1-4.38-1.12c-4.45-2.43-6.09-8-3.67-12.45 7.53-13.82 22.67-22.41 39.51-22.41 12.95 0 25.19 5.18 33.59 14.21 3.45 3.71 3.24 9.52-0.47 12.97-3.71 3.45-9.52 3.24-12.97-0.47-4.94-5.31-12.29-8.36-20.15-8.36-9.96 0-19.14 5.04-23.39 12.83a9.172 9.172 0 0 1-8.07 4.8zM614.7 454.4c1.48 0 2.99-0.36 4.38-1.12 4.45-2.43 6.09-8 3.67-12.45-7.53-13.82-22.67-22.41-39.51-22.41-12.95 0-25.19 5.18-33.59 14.21-3.45 3.71-3.24 9.52 0.47 12.97 3.71 3.45 9.52 3.24 12.97-0.47 4.94-5.31 12.29-8.36 20.15-8.36 9.96 0 19.14 5.04 23.39 12.83a9.172 9.172 0 0 0 8.07 4.8z" fill="#C26912" p-id="2660"></path><path d="M428.01 463.21c-8.46 0-15.32 6.86-15.32 15.32v9.07h0.05c0.26 8.23 6.98 14.83 15.27 14.83s15.01-6.6 15.27-14.83h0.05v-9.07c-0.01-8.46-6.86-15.32-15.32-15.32zM583.16 463.21c-8.46 0-15.32 6.86-15.32 15.32v9.07h0.05c0.26 8.23 6.98 14.83 15.27 14.83s15.01-6.6 15.27-14.83h0.05v-9.07c0-8.46-6.86-15.32-15.32-15.32z" fill="#572F12" p-id="2661"></path><path d="M444.83 591.44c2.96 30.95 29.02 55.16 60.75 55.16s57.79-24.21 60.75-55.16h-121.5z" fill="#FFFFFF" p-id="2662"></path></svg>