<?xml version="1.0" standalone="no"?><!DOCTYPE svg PUBLIC "-//W3C//DTD SVG 1.1//EN" "http://www.w3.org/Graphics/SVG/1.1/DTD/svg11.dtd"><svg t="1683258920788" class="icon" viewBox="0 0 1024 1024" version="1.1" xmlns="http://www.w3.org/2000/svg" p-id="1694" xmlns:xlink="http://www.w3.org/1999/xlink" width="200" height="200"><path d="M707.3 832.1L631.5 904l-2.2 2.1H394.7l-2.2-2.1-75.7-71.9c23.4-89.3 83.4-130.1 83.4-130.1h223.7s59.9 40.8 83.4 130.1z" fill="#D79B89" p-id="1695"></path><path d="M394.7 827.1v79h-87.2c0-27.6 3.5-57.2 9.3-79h77.9zM716.5 906.1h-87.2v-79h77.9c5.7 21.8 9.3 51.4 9.3 79z" fill="#FFECE3" p-id="1696"></path><path d="M640.3 819.4c0 29.9-3.1 58.4-8.8 84.6l-2.2 2.1H394.7l-2.2-2.1c-5.7-26.2-8.8-54.8-8.8-84.6 0-42.9 6.5-83 17.7-117.4h58.5c1.8 74.9 24.4 134.2 52.1 134.2 27.7 0 50.3-59.2 52.1-134.2h58.5c11.3 34.4 17.7 74.6 17.7 117.4z" fill="#64C4F6" p-id="1697"></path><path d="M517.3 720.1l-26.8 38.6c-9.6 13.9-30 14.4-40.3 1l-46.4-60.4 113.5 20.8z" fill="#FFFFFF" p-id="1698"></path><path d="M506.7 720.1l26.8 38.6c9.6 13.9 30 14.4 40.3 1l46.4-60.4-113.5 20.8z" fill="#FFFFFF" p-id="1699"></path><path d="M507.3 720l-0.3 0.5-0.3-0.5h0.3z" fill="#EFEAEB" p-id="1700"></path><path d="M507.3 720l-0.3 0.5-0.3-0.5h0.3z" fill="#EFEAEB" p-id="1701"></path><path d="M507.3 720l-0.3 0.5-0.3-0.5h0.3z" fill="#EFEAEB" p-id="1702"></path><path d="M507.3 720l-0.3 0.5-0.3-0.5h0.3z" fill="#EFEAEB" p-id="1703"></path><path d="M249.7 470.5m-76.8 0a76.8 76.8 0 1 0 153.6 0 76.8 76.8 0 1 0-153.6 0Z" fill="#F7DBD0" p-id="1704"></path><path d="M774.3 470.5m-76.8 0a76.8 76.8 0 1 0 153.6 0 76.8 76.8 0 1 0-153.6 0Z" fill="#F7DBD0" p-id="1705"></path><path d="M512 459.5m-269.3 0a269.3 269.3 0 1 0 538.6 0 269.3 269.3 0 1 0-538.6 0Z" fill="#FFECE3" p-id="1706"></path><path d="M812.6 394c-4.1 0.1-8.3 0.2-12.4 0.2-83.8 0-162.2-23.1-229.1-63.4-69.3 44.5-151.8 70.4-240.4 70.4-40.9 0-80.6-5.5-118.3-15.9 11-87.8 60.1-164.1 130.1-211.9C390.9 140.3 449.3 121 512 121s121 19.4 169.4 52.4c15.7 10.7 30.4 22.9 43.8 36.3 48.4 48.3 80.5 112.7 87.4 184.3z" fill="#5C6A7C" p-id="1707"></path><path d="M436.3 526.3c-7 0-12.7-5.7-12.7-12.7v-10.2c0-7 5.7-12.7 12.7-12.7s12.7 5.7 12.7 12.7v10.2c0 7.1-5.7 12.7-12.7 12.7zM587.7 526.3c-7 0-12.7-5.7-12.7-12.7v-10.2c0-7 5.7-12.7 12.7-12.7s12.7 5.7 12.7 12.7v10.2c0 7.1-5.7 12.7-12.7 12.7zM512 645.3c-16.4 0-31.9-7.1-42.7-19.4-4.6-5.3-4-13.3 1.2-17.9 5.3-4.6 13.3-4 17.9 1.2 6 6.8 14.6 10.8 23.6 10.8s17.6-3.9 23.6-10.7c4.6-5.3 12.6-5.8 17.9-1.2 5.3 4.6 5.8 12.6 1.2 17.9-10.8 12.2-26.3 19.3-42.7 19.3z" fill="#450064" p-id="1708"></path><path d="M609.6 619H414.4c-5.9 0-10.7-4.8-10.7-10.7 0-28.1 23-51.1 51.1-51.1h114.4c28.1 0 51.1 23 51.1 51.1 0 5.9-4.8 10.7-10.7 10.7z" fill="#5C6A7C" p-id="1709"></path><path d="M821.8 397.9c0.6-1.5 0.9-3.2 0.7-4.8-6.9-71.6-39-139.2-90.3-190.4-13.9-13.9-29.1-26.5-45.2-37.5-51.9-35.5-112.4-54.2-175-54.2-62.8 0-123.3 18.7-175.1 54.1-74.3 50.8-123.3 130.5-134.4 218.9-0.5 4.3 1.8 8.4 5.6 10.2-7.3 4-14 9-20 15.1-16.2 16.4-25.1 38.1-25.1 61.1 0 47.9 38.9 86.8 86.8 86.8h0.8c23.7 63.2 70.2 116.4 129.6 148.4-19.6 17.9-52.3 54.9-70.2 114.2-1.3 1.2-2.3 2.8-2.8 4.7-6 22.7-9.6 53.2-9.6 81.6 0 5.5 4.5 10 10 10h409c5.5 0 10-4.5 10-10 0-28-3.6-58.5-9.6-81.5-0.5-1.8-1.4-3.3-2.6-4.5-17.9-59.5-51.5-97-70.3-114.4 59.4-31.9 106-85 129.7-148.4h0.6c47.9 0 86.8-38.9 86.8-86.8-0.1-30.3-15.7-57.1-39.4-72.6zM348.1 181.7C396.6 148.5 453.3 131 512 131c58.5 0 115.2 17.5 163.8 50.7 15.1 10.3 29.4 22.1 42.4 35.1 45.5 45.4 74.8 104.5 83.3 167.4h-1.2c-79.2 0-156.6-21.4-223.9-62-3.3-2-7.4-1.9-10.6 0.2-70.1 45-151.4 68.8-235 68.8-36.4 0-72.4-4.5-107.2-13.3 12.3-79.2 57.4-150.4 124.5-196.2zM182.9 470.5c0-32.8 24-60.4 55.4-65.8-3.6 18.1-5.4 36.5-5.4 54.9 0 26.4 3.7 52.4 10.9 77.4-34.1-3-60.9-31.7-60.9-66.5z m218.2 425.6c-4.4-21.9-6.8-45.2-7.3-69.2v-0.2c-0.1-2.4-0.1-4.8-0.1-7.3 0-34.8 4.4-69.1 12.9-100l35.7 46.4c4.5 5.8 10.6 9.9 17.4 12 11.1 43.5 30 68.3 52.3 68.3 22.3 0 41.2-24.8 52.3-68.3 6.8-2.1 12.9-6.3 17.4-12.1l35.7-46.4c8.5 30.9 12.9 65.2 12.9 100 0 2.6 0 5-0.1 7.3v0.2c-0.4 24-2.9 47.2-7.3 69.2H401.1z m97.6-131.7l13.3-19.1 13.3 19.1c4.5 6.5 11 11.2 18.3 13.5-4 14.1-8.9 26-14.4 34.5-5.7 8.9-11.8 13.8-17.2 13.8-5.3 0-11.4-4.9-17.2-13.8-5.5-8.6-10.5-20.4-14.4-34.5 7.3-2.2 13.7-6.9 18.3-13.5z m67.2-10.8c-2.6 3.3-6.4 5.4-10.5 5.8h-0.1-0.1c-5.2 0.5-10.4-1.9-13.4-6.4l-10.3-14.8c11.1-0.8 22.4-2.2 33.5-4.3 6.6-1.3 13.2-2.8 19.7-4.5l-18.8 24.2z m-83.6-0.6c-3.1 4.5-8.1 6.8-13.4 6.3h-0.1-0.1c-4.1-0.3-7.9-2.4-10.5-5.7l-18.8-24.4c6.6 1.8 13.3 3.3 20 4.6 11.1 2.1 22.2 3.5 33.3 4.3L482.3 753z m-99.1-22.1c-6.1 27.3-9.3 56.6-9.4 86.2h-41.9c13.7-40.5 35.1-68.9 51.3-86.2z m-58.6 106.2H374c0.8 20.3 3 40.1 6.6 59h-63c0.7-20.7 3.2-41.7 7-59z m318.7 59c3.6-18.9 5.8-38.7 6.6-59h49.4c3.9 17.5 6.4 38.6 7 59h-63z m49-79h-42c-0.2-29.8-3.4-59.2-9.5-86.5 16.2 17.2 37.6 45.7 51.5 86.5z m-70.4-122.7s-0.1 0 0 0c-0.1 0-0.1 0 0 0-0.2 0.1-0.3 0.1-0.3 0.2-0.3 0.2-0.7 0.3-1 0.5-0.5 0.2-0.9 0.4-1.4 0.6-2.7 1.3-5.5 2.4-8.4 3.7l-2.1 0.9c-15.4 6.1-31.4 10.8-47.5 13.9-16.1 3.1-32.4 4.6-48.3 4.6h-1.3c-15.9 0-32.2-1.6-48.3-4.6-16.1-3.1-32.2-7.8-47.5-13.9-3.5-1.4-7-3-10.5-4.6-0.9-0.5-2-0.9-2.9-1.3-63.3-29.7-112.6-84.6-135.3-150.6-9.3-27-14-55.3-14-84.2 0-18.1 1.9-36.3 5.7-54.1 23.7 3.8 47.9 5.7 72.1 5.7 85.4 0 168.4-23.7 240.6-68.7 59.1 34.5 125.4 55.1 193.8 60.3 4.1 18.4 6.2 37.5 6.2 56.7 0 28.8-4.7 57.2-14 84.2v0.1c-22.9 66.1-72.3 121-135.6 150.6zM780.4 537c7.2-25.1 10.9-51.1 10.9-77.5 0-18.5-1.8-36.9-5.4-54.8 31.3 5.5 55.2 32.9 55.2 65.8 0 34.8-26.7 63.4-60.7 66.5z" fill="#450064" p-id="1710"></path><path d="M569.2 547.2H454.8c-33.7 0-61.1 27.4-61.1 61.1 0 11.4 9.3 20.7 20.7 20.7h195.2c11.4 0 20.7-9.3 20.7-20.7 0-33.7-27.4-61.1-61.1-61.1z m40.4 61.8H414.4c-0.4 0-0.7-0.3-0.7-0.7 0-22.7 18.4-41.1 41.1-41.1h114.4c22.7 0 41.1 18.4 41.1 41.1 0 0.4-0.3 0.7-0.7 0.7z" fill="#450064" p-id="1711"></path></svg>