<?xml version="1.0" standalone="no"?><!DOCTYPE svg PUBLIC "-//W3C//DTD SVG 1.1//EN" "http://www.w3.org/Graphics/SVG/1.1/DTD/svg11.dtd"><svg t="1683258721603" class="icon" viewBox="0 0 1024 1024" version="1.1" xmlns="http://www.w3.org/2000/svg" p-id="1873" xmlns:xlink="http://www.w3.org/1999/xlink" width="200" height="200"><path d="M629.3 906.1H394.7l-77.9-74c23.4-89.3 83.4-130.1 83.4-130.1h223.7s59.9 40.8 83.4 130.1l-78 74z" fill="#99D37A" p-id="1874"></path><path d="M549.3 735.6L538.5 764l-1.8 4.6-7.4 19.5h-37.6l-20-52.5z" fill="#F5C73E" p-id="1875"></path><path d="M529.3 788.1h-37.6l-20 118h77.6z" fill="#FCE170" p-id="1876"></path><path d="M394.7 827.1v79h-87.2c0-27.6 3.5-57.2 9.3-79h77.9zM716.5 906.1h-87.2v-79h77.9c5.7 21.8 9.3 51.4 9.3 79z" fill="#FFECE3" p-id="1877"></path><path d="M517.3 720.1l-26.8 38.6c-9.6 13.9-30 14.4-40.3 1l-46.4-60.4 113.5 20.8z" fill="#FFFFFF" p-id="1878"></path><path d="M506.7 720.1l26.8 38.6c9.6 13.9 30 14.4 40.3 1l46.4-60.4-113.5 20.8z" fill="#FFFFFF" p-id="1879"></path><path d="M507.3 720l-0.3 0.5-0.3-0.5h0.3z" fill="#EFEAEB" p-id="1880"></path><path d="M507.3 720l-0.3 0.5-0.3-0.5h0.3z" fill="#EFEAEB" p-id="1881"></path><path d="M507.3 720l-0.3 0.5-0.3-0.5h0.3z" fill="#EFEAEB" p-id="1882"></path><path d="M507.3 720l-0.3 0.5-0.3-0.5h0.3z" fill="#EFEAEB" p-id="1883"></path><path d="M249.7 470.5m-76.8 0a76.8 76.8 0 1 0 153.6 0 76.8 76.8 0 1 0-153.6 0Z" fill="#F7DBD0" p-id="1884"></path><path d="M774.3 470.5m-76.8 0a76.8 76.8 0 1 0 153.6 0 76.8 76.8 0 1 0-153.6 0Z" fill="#F7DBD0" p-id="1885"></path><path d="M512 459.5m-269.3 0a269.3 269.3 0 1 0 538.6 0 269.3 269.3 0 1 0-538.6 0Z" fill="#FFECE3" p-id="1886"></path><path d="M812.6 394c-4.1 0.1-8.3 0.2-12.4 0.2-83.8 0-162.2-23.1-229.1-63.4-69.3 44.5-151.8 70.4-240.4 70.4-40.9 0-80.6-5.5-118.3-15.9 11-87.8 60.1-164.1 130.1-211.9C390.9 140.3 449.3 121 512 121s121 19.4 169.4 52.4c15.7 10.7 30.4 22.9 43.8 36.3 48.4 48.3 80.5 112.7 87.4 184.3z" fill="#AD6D5A" p-id="1887"></path><path d="M436.3 526.3c-7 0-12.7-5.7-12.7-12.7v-10.2c0-7 5.7-12.7 12.7-12.7s12.7 5.7 12.7 12.7v10.2c0 7.1-5.7 12.7-12.7 12.7zM587.7 526.3c-7 0-12.7-5.7-12.7-12.7v-10.2c0-7 5.7-12.7 12.7-12.7s12.7 5.7 12.7 12.7v10.2c0 7.1-5.7 12.7-12.7 12.7zM512 597.7c-16.4 0-31.9-7.1-42.7-19.4-4.6-5.3-4-13.3 1.2-17.9 5.3-4.6 13.3-4 17.9 1.2 6 6.8 14.6 10.8 23.6 10.8s17.6-3.9 23.6-10.7c4.6-5.3 12.6-5.8 17.9-1.2 5.3 4.6 5.8 12.6 1.2 17.9-10.8 12.2-26.3 19.3-42.7 19.3z" fill="#450064" p-id="1888"></path><path d="M823.1 398.8l-0.6-5.7c-6.9-71.6-39-139.2-90.3-190.4-13.9-13.9-29.1-26.5-45.2-37.5-51.9-35.5-112.4-54.2-175-54.2-62.8 0-123.3 18.7-175.1 54.1-74.3 50.8-123.3 130.5-134.4 218.9l-1.1 8.6 6.5 1.8c-7.2 4-13.9 9-19.8 15-16.2 16.4-25.1 38.1-25.1 61.1 0 47.9 38.9 86.8 86.8 86.8h0.6C274 620.5 320.5 673.7 380 705.7c-19.3 17.6-51.3 53.7-69.3 111.4h-1.6l-2 7.4c-6 22.7-9.6 53.2-9.6 81.6v10H726.6v-10c0-28-3.6-58.5-9.6-81.5l-2-7.5h-1.6c-18.1-57.7-50.9-94.3-69.4-111.4 59.5-32 106-85.1 129.7-148.4h0.6c47.9 0 86.8-38.9 86.8-86.8 0-29.8-15.1-56.1-38-71.7z m-475-217.1C396.6 148.5 453.3 131 512 131c58.5 0 115.2 17.5 163.8 50.7 15.1 10.3 29.4 22.1 42.4 35.1 45.5 45.4 74.8 104.5 83.3 167.4h-1.2c-8.9 0-17.8-0.3-26.5-0.8-69.7-4.2-137.9-25.3-197.5-61.2L571 319l-5.2 3.4c-70.1 45-151.4 68.8-235 68.8-26.3 0-52.6-2.4-78.2-7l-1.2-0.2v-0.3h-1.6c-8.8-1.7-17.6-3.6-26.3-5.8 12.4-79.2 57.5-150.4 124.6-196.2zM182.9 470.5c0-32.8 23.9-60.3 55.2-65.8-3.6 18-5.4 36.3-5.4 54.8 0 26.4 3.7 52.4 10.9 77.5-34-3.1-60.7-31.7-60.7-66.5z m312.2 298.3c1.3-1.4 2.5-2.9 3.6-4.4l13.1-18.8h0.5l13 18.8c0.5 0.7 1 1.4 1.6 2.1l-4.4 11.6h-23.8l-3.6-9.3z m49.6-12.6c-1.1-0.9-2.1-2-3-3.2l-10.3-14.9c18.1-1.2 35.8-4.2 53.2-8.8l-18.7 24.3c-2.5 3.2-6 5.2-10 5.7s-8.1-0.6-11.2-3.1z m-62.4-3.2c-1.2 1.7-2.7 3.1-4.4 4.2-6.6 4.1-15.1 2.5-19.8-3.6l-18.7-24.3c17.3 4.7 35.1 7.6 53.2 8.8L482.3 753z m-97.6 143.1h-67c0.6-20.7 3.1-41.7 7-59h60.1v59z m20 0v-79h-72.9c19.4-57 53.8-90.2 67.7-101.9 1.9 0.9 3.9 1.7 5.8 2.5l37 48.1c6.9 8.9 17.2 13.7 27.7 13.7 2.5 0 5-0.3 7.4-0.8l4 10.4-18.1 107h-58.6z m78.8 0l16.6-98h20.7l16.6 98h-53.9z m155.8 0v-59h60c3.9 17.5 6.4 38.6 7 59h-67z m53-79h-73v79h-61.6l-18.1-107 4.2-11.2c3.3 1 6.7 1.5 10.2 1.5 1.4 0 2.8-0.1 4.2-0.3 9.4-1.1 17.7-5.9 23.4-13.4l37-48.1c2-0.8 3.9-1.6 5.9-2.5 14 11.7 48.3 44.9 67.8 102z m-70.5-122.6c-4.3 2-8.7 3.9-13.1 5.7l-1.1 0.4c-30.2 12-62.1 18.1-94.9 18.2h-1.5c-32.5-0.1-64.2-6.1-94.2-17.9l-1.8-0.7c-4.3-1.7-8.7-3.6-13-5.7-63.5-29.7-112.9-84.7-135.6-150.8-9.3-27-14-55.3-14-84.2 0-18.2 1.9-36.3 5.6-54 23.8 3.8 48.1 5.7 72.4 5.7 85.4 0 168.4-23.7 240.6-68.7 58.9 34.4 125.6 55.1 193.8 60.3 4.1 18.5 6.2 37.5 6.2 56.6 0 28.8-4.7 57.2-14 84.2-22.6 66.2-72 121.2-135.4 150.9zM780.4 537c7.2-25.1 10.9-51.1 10.9-77.5 0-18.4-1.8-36.8-5.4-54.8 31.3 5.5 55.2 32.9 55.2 65.8 0 34.8-26.7 63.4-60.7 66.5z" fill="#450064" p-id="1889"></path></svg>